<svg xmlns="http://www.w3.org/2000/svg" viewBox="0 0 340 430">
<defs><linearGradient id="fabric" x1="0" y1="0" x2="1" y2="1"><stop offset="0" stop-color="#84cc16"/><stop offset="1" stop-color="#166534"/></linearGradient><linearGradient id="shade" x1="0" y1="0" x2="0" y2="1"><stop offset="0" stop-color="rgba(255,255,255,.28)"/><stop offset="1" stop-color="rgba(0,0,0,.22)"/></linearGradient><filter id="shadow"><feDropShadow dx="0" dy="10" stdDeviation="8" flood-color="#000" flood-opacity=".23"/></filter></defs>
<g filter="url(#shadow)" opacity=".96">

<path d="M111 72l59-30 59 30 72 54-42 74-38-24v186H119V176l-38 24-42-74 72-54z" fill="url(#fabric)"/>
<path d="M114 76c32 34 80 34 112 0" fill="none" stroke="rgba(255,255,255,.22)" stroke-width="8"/>
<path d="M138 70c18 18 44 18 62 0l-12 40h-38z" fill="#f8fafc" opacity=".95"/>
<path d="M121 176v184M219 176v184" stroke="rgba(0,0,0,.15)" stroke-width="4"/>
<path d="M87 139l-22 53M253 139l22 53" stroke="rgba(0,0,0,.18)" stroke-width="6" stroke-linecap="round"/>

<path d="M103 96c24 18 110 18 134 0" fill="none" stroke="rgba(255,255,255,.18)" stroke-width="4"/>
</g></svg>