<svg xmlns="http://www.w3.org/2000/svg" viewBox="0 0 340 430">
<defs><linearGradient id="fabric" x1="0" y1="0" x2="1" y2="1"><stop offset="0" stop-color="#db2777"/><stop offset="1" stop-color="#7e22ce"/></linearGradient><filter id="shadow"><feDropShadow dx="0" dy="10" stdDeviation="8" flood-color="#000" flood-opacity=".22"/></filter></defs>
<g filter="url(#shadow)" opacity=".96">
<path d="M128 55h84l37 88-34 19 61 220H64l61-220-34-19 37-88z" fill="url(#fabric)"/>
<path d="M142 70h56l-16 54h-24z" fill="rgba(255,255,255,.32)"/>
<path d="M127 165c28 18 60 18 88 0" fill="none" stroke="rgba(255,255,255,.24)" stroke-width="5"/>
<path d="M111 210h118M99 275h142" stroke="rgba(0,0,0,.10)" stroke-width="5"/>
<circle cx="122" cy="170" r="9" fill="#fde68a" opacity=".55"/><circle cx="130" cy="176" r="5" fill="#fff" opacity=".55"/><circle cx="190" cy="210" r="9" fill="#f9a8d4" opacity=".55"/><circle cx="198" cy="216" r="5" fill="#fff" opacity=".55"/><circle cx="155" cy="255" r="9" fill="#bbf7d0" opacity=".55"/><circle cx="163" cy="261" r="5" fill="#fff" opacity=".55"/><circle cx="220" cy="300" r="9" fill="#fde68a" opacity=".55"/><circle cx="228" cy="306" r="5" fill="#fff" opacity=".55"/><circle cx="105" cy="300" r="9" fill="#f9a8d4" opacity=".55"/><circle cx="113" cy="306" r="5" fill="#fff" opacity=".55"/>
</g></svg>