<svg xmlns="http://www.w3.org/2000/svg" viewBox="0 0 340 430">
<defs><linearGradient id="fabric" x1="0" y1="0" x2="1" y2="1"><stop offset="0" stop-color="#38bdf8"/><stop offset="1" stop-color="#1d4ed8"/></linearGradient><linearGradient id="shade" x1="0" y1="0" x2="0" y2="1"><stop offset="0" stop-color="rgba(255,255,255,.28)"/><stop offset="1" stop-color="rgba(0,0,0,.22)"/></linearGradient><filter id="shadow"><feDropShadow dx="0" dy="10" stdDeviation="8" flood-color="#000" flood-opacity=".23"/></filter></defs>
<g filter="url(#shadow)" opacity=".96">

<path d="M111 72l59-30 59 30 72 54-42 74-38-24v186H119V176l-38 24-42-74 72-54z" fill="url(#fabric)"/>
<path d="M114 76c32 34 80 34 112 0" fill="none" stroke="rgba(255,255,255,.22)" stroke-width="8"/>
<path d="M132 68l38 46 38-46-18 95h-40z" fill="rgba(255,255,255,.25)"/><path d="M170 80v250" stroke="rgba(255,255,255,.35)" stroke-width="5"/>
<path d="M121 176v184M219 176v184" stroke="rgba(0,0,0,.15)" stroke-width="4"/>
<path d="M87 139l-22 53M253 139l22 53" stroke="rgba(0,0,0,.18)" stroke-width="6" stroke-linecap="round"/>
<g opacity=".16"><path d="M98 120h144M105 156h130M110 210h120M112 265h116" stroke="#fff" stroke-width="3"/><path d="M125 120v220M215 120v220" stroke="#0f172a" stroke-width="3" opacity=".5"/></g>
<path d="M103 96c24 18 110 18 134 0" fill="none" stroke="rgba(255,255,255,.18)" stroke-width="4"/>
</g></svg>